<mxfile host="app.diagrams.net" agent="Mozilla/5.0 (Macintosh; Intel Mac OS X 10_15_7) AppleWebKit/537.36 (KHTML, like Gecko) Chrome/136.0.0.0 Safari/537.36" border="50" scale="3" compressed="false" locked="false" version="27.1.4">
  <diagram name="Blank" id="YmL12bMKpDGza6XwsDPr">
    <mxGraphModel dx="1331" dy="571" grid="0" gridSize="10" guides="1" tooltips="1" connect="1" arrows="1" fold="1" page="0" pageScale="1" pageWidth="827" pageHeight="1169" background="light-dark(#ffffe9, #121212)" math="1" shadow="0">
      <root>
        <mxCell id="X5NqExCQtvZxIxQ7pmgY-0" />
        <mxCell id="1" parent="X5NqExCQtvZxIxQ7pmgY-0" />
        <mxCell id="MIAvLR50btDMAMFafLu4-5" style="edgeStyle=orthogonalEdgeStyle;rounded=0;orthogonalLoop=1;jettySize=auto;html=1;exitX=1;exitY=0.75;exitDx=0;exitDy=0;" parent="1" source="MIAvLR50btDMAMFafLu4-6" edge="1">
          <mxGeometry relative="1" as="geometry">
            <mxPoint x="770" y="408" as="targetPoint" />
          </mxGeometry>
        </mxCell>
        <mxCell id="y-ezYGlPpoAGG1hy6tS6-12" style="edgeStyle=orthogonalEdgeStyle;rounded=0;orthogonalLoop=1;jettySize=auto;html=1;exitX=0.75;exitY=1;exitDx=0;exitDy=0;entryX=0.75;entryY=1;entryDx=0;entryDy=0;" parent="1" edge="1">
          <mxGeometry relative="1" as="geometry">
            <mxPoint x="394" y="644" as="sourcePoint" />
            <mxPoint x="394" y="448" as="targetPoint" />
          </mxGeometry>
        </mxCell>
        <mxCell id="MIAvLR50btDMAMFafLu4-6" value="Подбор ТСР&lt;div&gt;&amp;nbsp;детям с ДЦП&lt;/div&gt;&lt;div&gt;(&lt;span style=&quot;background-color: transparent; color: light-dark(rgb(0, 0, 0), rgb(255, 255, 255));&quot;&gt;в ИС)&lt;/span&gt;&lt;/div&gt;" style="rounded=0;whiteSpace=wrap;html=1;fontSize=24;fontStyle=1;strokeWidth=2;fontFamily=Times New Roman;" parent="1" vertex="1">
          <mxGeometry x="283" y="288" width="200" height="160" as="geometry" />
        </mxCell>
        <mxCell id="MIAvLR50btDMAMFafLu4-21" value="&lt;span&gt;Отчет по подбору&amp;nbsp;&lt;/span&gt;" style="text;html=1;align=right;verticalAlign=middle;whiteSpace=wrap;rounded=0;fontSize=13;fontFamily=Times New Roman;" parent="1" vertex="1">
          <mxGeometry x="522" y="307" width="240" height="20" as="geometry" />
        </mxCell>
        <mxCell id="MIAvLR50btDMAMFafLu4-22" value="&lt;span style=&quot;&quot;&gt;Рекомендованный набор ТСР&lt;/span&gt;" style="text;html=1;align=right;verticalAlign=middle;whiteSpace=wrap;rounded=0;fontSize=13;fontFamily=Times New Roman;" parent="1" vertex="1">
          <mxGeometry x="519" y="347" width="240" height="20" as="geometry" />
        </mxCell>
        <mxCell id="MIAvLR50btDMAMFafLu4-23" value="&lt;span&gt;Протокол консультации&lt;/span&gt;" style="text;html=1;align=right;verticalAlign=middle;whiteSpace=wrap;rounded=0;fontSize=13;fontFamily=Times New Roman;" parent="1" vertex="1">
          <mxGeometry x="519" y="388" width="240" height="20" as="geometry" />
        </mxCell>
        <mxCell id="y-ezYGlPpoAGG1hy6tS6-4" style="edgeStyle=orthogonalEdgeStyle;rounded=0;orthogonalLoop=1;jettySize=auto;html=1;exitX=1;exitY=0.75;exitDx=0;exitDy=0;" parent="1" edge="1">
          <mxGeometry relative="1" as="geometry">
            <mxPoint x="284" y="407" as="targetPoint" />
            <mxPoint x="-3" y="407" as="sourcePoint" />
          </mxGeometry>
        </mxCell>
        <mxCell id="y-ezYGlPpoAGG1hy6tS6-5" style="edgeStyle=orthogonalEdgeStyle;rounded=0;orthogonalLoop=1;jettySize=auto;html=1;exitX=1;exitY=0.75;exitDx=0;exitDy=0;" parent="1" edge="1">
          <mxGeometry relative="1" as="geometry">
            <mxPoint x="770" y="368" as="targetPoint" />
            <mxPoint x="483" y="368" as="sourcePoint" />
          </mxGeometry>
        </mxCell>
        <mxCell id="y-ezYGlPpoAGG1hy6tS6-6" style="edgeStyle=orthogonalEdgeStyle;rounded=0;orthogonalLoop=1;jettySize=auto;html=1;exitX=1;exitY=0.75;exitDx=0;exitDy=0;" parent="1" edge="1">
          <mxGeometry relative="1" as="geometry">
            <mxPoint x="283" y="328" as="targetPoint" />
            <mxPoint x="-4" y="328" as="sourcePoint" />
          </mxGeometry>
        </mxCell>
        <mxCell id="y-ezYGlPpoAGG1hy6tS6-7" value="&lt;font&gt;Медицинские данные&amp;nbsp;&lt;/font&gt;&lt;span style=&quot;color: light-dark(rgb(0, 0, 0), rgb(255, 255, 255)); background-color: transparent;&quot;&gt;пациента&lt;/span&gt;" style="text;html=1;align=left;verticalAlign=middle;whiteSpace=wrap;rounded=0;fontSize=13;fontFamily=Times New Roman;" parent="1" vertex="1">
          <mxGeometry x="-3" y="307" width="240" height="20" as="geometry" />
        </mxCell>
        <mxCell id="y-ezYGlPpoAGG1hy6tS6-8" value="&lt;span style=&quot;font-family: Helvetica; text-align: center;&quot;&gt;Индивидуальные цели реабилитации&lt;/span&gt;" style="text;html=1;align=left;verticalAlign=middle;whiteSpace=wrap;rounded=0;fontSize=13;fontFamily=Times New Roman;" parent="1" vertex="1">
          <mxGeometry x="-3" y="386" width="240" height="20" as="geometry" />
        </mxCell>
        <mxCell id="y-ezYGlPpoAGG1hy6tS6-10" style="edgeStyle=orthogonalEdgeStyle;rounded=0;orthogonalLoop=1;jettySize=auto;html=1;exitX=1;exitY=0.75;exitDx=0;exitDy=0;" parent="1" edge="1">
          <mxGeometry relative="1" as="geometry">
            <mxPoint x="770" y="328" as="targetPoint" />
            <mxPoint x="483" y="328" as="sourcePoint" />
          </mxGeometry>
        </mxCell>
        <mxCell id="y-ezYGlPpoAGG1hy6tS6-13" value="&lt;span&gt;Инженер&lt;/span&gt;&lt;div&gt;&lt;span&gt;по ТСР&lt;/span&gt;&lt;/div&gt;" style="text;html=1;align=left;verticalAlign=middle;whiteSpace=wrap;rounded=0;fontFamily=Times New Roman;fontSize=13;" parent="1" vertex="1">
          <mxGeometry x="287" y="529" width="118" height="30" as="geometry" />
        </mxCell>
        <mxCell id="y-ezYGlPpoAGG1hy6tS6-14" style="edgeStyle=orthogonalEdgeStyle;rounded=0;orthogonalLoop=1;jettySize=auto;html=1;exitX=0.75;exitY=1;exitDx=0;exitDy=0;entryX=0.75;entryY=1;entryDx=0;entryDy=0;" parent="1" edge="1">
          <mxGeometry relative="1" as="geometry">
            <mxPoint x="339" y="448" as="targetPoint" />
            <mxPoint x="339" y="644" as="sourcePoint" />
          </mxGeometry>
        </mxCell>
        <mxCell id="y-ezYGlPpoAGG1hy6tS6-16" value="&lt;span style=&quot;font-family: Helvetica; text-align: center;&quot;&gt;Врач-&lt;/span&gt;&lt;div&gt;&lt;span style=&quot;font-family: Helvetica; text-align: center;&quot;&gt;реаби&lt;/span&gt;&lt;div&gt;&lt;span style=&quot;font-family: Helvetica; text-align: center;&quot;&gt;литолог&lt;/span&gt;&lt;/div&gt;&lt;/div&gt;" style="text;html=1;align=left;verticalAlign=middle;whiteSpace=wrap;rounded=0;fontFamily=Times New Roman;fontSize=13;" parent="1" vertex="1">
          <mxGeometry x="339" y="529" width="118" height="30" as="geometry" />
        </mxCell>
        <mxCell id="y-ezYGlPpoAGG1hy6tS6-18" style="edgeStyle=orthogonalEdgeStyle;rounded=0;orthogonalLoop=1;jettySize=auto;html=1;exitX=0.75;exitY=1;exitDx=0;exitDy=0;entryX=0.75;entryY=1;entryDx=0;entryDy=0;" parent="1" edge="1">
          <mxGeometry relative="1" as="geometry">
            <mxPoint x="471" y="288" as="targetPoint" />
            <mxPoint x="471" y="92" as="sourcePoint" />
          </mxGeometry>
        </mxCell>
        <mxCell id="y-ezYGlPpoAGG1hy6tS6-19" style="edgeStyle=orthogonalEdgeStyle;rounded=0;orthogonalLoop=1;jettySize=auto;html=1;exitX=0.75;exitY=1;exitDx=0;exitDy=0;entryX=0.75;entryY=1;entryDx=0;entryDy=0;" parent="1" edge="1">
          <mxGeometry relative="1" as="geometry">
            <mxPoint x="295" y="287" as="targetPoint" />
            <mxPoint x="295" y="91" as="sourcePoint" />
          </mxGeometry>
        </mxCell>
        <mxCell id="y-ezYGlPpoAGG1hy6tS6-20" style="edgeStyle=orthogonalEdgeStyle;rounded=0;orthogonalLoop=1;jettySize=auto;html=1;exitX=0.75;exitY=1;exitDx=0;exitDy=0;entryX=0.75;entryY=1;entryDx=0;entryDy=0;" parent="1" edge="1">
          <mxGeometry relative="1" as="geometry">
            <mxPoint x="383" y="287" as="targetPoint" />
            <mxPoint x="383" y="91" as="sourcePoint" />
          </mxGeometry>
        </mxCell>
        <mxCell id="y-ezYGlPpoAGG1hy6tS6-21" value="&lt;span style=&quot;font-family: Helvetica; text-align: center;&quot;&gt;П&lt;/span&gt;&lt;span style=&quot;color: light-dark(rgb(0, 0, 0), rgb(255, 255, 255)); background-color: transparent; font-family: Times;&quot;&gt;равила&lt;/span&gt;&lt;div&gt;&lt;span style=&quot;color: light-dark(rgb(0, 0, 0), rgb(255, 255, 255)); background-color: transparent; font-family: Times;&quot;&gt;и&amp;nbsp;&lt;/span&gt;&lt;span style=&quot;background-color: transparent; color: light-dark(rgb(0, 0, 0), rgb(255, 255, 255)); font-family: Times;&quot;&gt;знания&lt;/span&gt;&lt;div&gt;&lt;span style=&quot;color: light-dark(rgb(0, 0, 0), rgb(255, 255, 255)); background-color: transparent; font-family: Times;&quot;&gt;экспертов&lt;/span&gt;&lt;/div&gt;&lt;/div&gt;" style="text;html=1;align=left;verticalAlign=middle;whiteSpace=wrap;rounded=0;fontFamily=Times New Roman;fontSize=13;" parent="1" vertex="1">
          <mxGeometry x="296" y="165" width="56" height="54" as="geometry" />
        </mxCell>
        <mxCell id="y-ezYGlPpoAGG1hy6tS6-23" value="&lt;span style=&quot;font-family: Times;&quot;&gt;Классификация форм&lt;/span&gt;&lt;div&gt;&lt;span style=&quot;font-family: Times;&quot;&gt;ДЦП&lt;/span&gt;&lt;/div&gt;&lt;div&gt;&lt;span style=&quot;font-family: Times;&quot;&gt;(ICF)&lt;/span&gt;&lt;/div&gt;" style="text;html=1;align=left;verticalAlign=middle;whiteSpace=wrap;rounded=0;fontFamily=Times New Roman;fontSize=13;" parent="1" vertex="1">
          <mxGeometry x="472" y="162" width="91" height="73" as="geometry" />
        </mxCell>
        <mxCell id="y-ezYGlPpoAGG1hy6tS6-24" value="&lt;span style=&quot;font-family: Helvetica;&quot;&gt;Методические&amp;nbsp;&lt;/span&gt;&lt;div style=&quot;font-family: Helvetica;&quot;&gt;&lt;span style=&quot;font-family: Times; background-color: transparent; color: light-dark(rgb(0, 0, 0), rgb(255, 255, 255));&quot;&gt;рекомендации Минздрава и ВОЗ&lt;/span&gt;&lt;/div&gt;" style="text;html=1;align=left;verticalAlign=middle;whiteSpace=wrap;rounded=0;fontFamily=Times New Roman;fontSize=12;" parent="1" vertex="1">
          <mxGeometry x="384" y="170" width="56" height="54" as="geometry" />
        </mxCell>
        <mxCell id="sQjr3y7nAku8-8PO9bos-1" style="edgeStyle=orthogonalEdgeStyle;rounded=0;orthogonalLoop=1;jettySize=auto;html=1;exitX=0.75;exitY=1;exitDx=0;exitDy=0;entryX=0.75;entryY=1;entryDx=0;entryDy=0;" parent="1" edge="1">
          <mxGeometry relative="1" as="geometry">
            <mxPoint x="287" y="448" as="targetPoint" />
            <mxPoint x="287" y="644" as="sourcePoint" />
          </mxGeometry>
        </mxCell>
        <mxCell id="sQjr3y7nAku8-8PO9bos-2" value="&lt;div style=&quot;&quot;&gt;&lt;span style=&quot;background-color: transparent; color: light-dark(rgb(0, 0, 0), rgb(255, 255, 255));&quot;&gt;&lt;font face=&quot;Helvetica&quot;&gt;Система&lt;/font&gt;&lt;/span&gt;&lt;/div&gt;&lt;div style=&quot;&quot;&gt;&lt;span style=&quot;background-color: transparent; color: light-dark(rgb(0, 0, 0), rgb(255, 255, 255));&quot;&gt;&lt;font face=&quot;Helvetica&quot;&gt;ИИ&lt;/font&gt;&lt;/span&gt;&lt;/div&gt;" style="text;html=1;align=left;verticalAlign=middle;whiteSpace=wrap;rounded=0;fontFamily=Times New Roman;fontSize=13;" parent="1" vertex="1">
          <mxGeometry x="395" y="529" width="57" height="30" as="geometry" />
        </mxCell>
        <mxCell id="0U5wJp_IbpMzN41-wFoW-1" style="edgeStyle=orthogonalEdgeStyle;rounded=0;orthogonalLoop=1;jettySize=auto;html=1;exitX=1;exitY=0.75;exitDx=0;exitDy=0;" edge="1" parent="1">
          <mxGeometry relative="1" as="geometry">
            <mxPoint x="770" y="443" as="targetPoint" />
            <mxPoint x="483" y="443" as="sourcePoint" />
          </mxGeometry>
        </mxCell>
        <mxCell id="0U5wJp_IbpMzN41-wFoW-2" value="&lt;span&gt;Обоснование выбора&lt;/span&gt;" style="text;html=1;align=right;verticalAlign=middle;whiteSpace=wrap;rounded=0;fontSize=13;fontFamily=Times New Roman;" vertex="1" parent="1">
          <mxGeometry x="519" y="422" width="240" height="20" as="geometry" />
        </mxCell>
        <mxCell id="0U5wJp_IbpMzN41-wFoW-3" style="edgeStyle=orthogonalEdgeStyle;rounded=0;orthogonalLoop=1;jettySize=auto;html=1;exitX=0.75;exitY=1;exitDx=0;exitDy=0;entryX=0.75;entryY=1;entryDx=0;entryDy=0;" edge="1" parent="1">
          <mxGeometry relative="1" as="geometry">
            <mxPoint x="451" y="644" as="sourcePoint" />
            <mxPoint x="451" y="448" as="targetPoint" />
          </mxGeometry>
        </mxCell>
        <mxCell id="0U5wJp_IbpMzN41-wFoW-4" value="&lt;div style=&quot;&quot;&gt;&lt;font face=&quot;Helvetica&quot;&gt;База знаний/&lt;/font&gt;&lt;/div&gt;&lt;div style=&quot;&quot;&gt;&lt;span style=&quot;font-family: Helvetica; background-color: transparent; color: light-dark(rgb(0, 0, 0), rgb(255, 255, 255));&quot;&gt;правил/онтология&lt;/span&gt;&lt;/div&gt;" style="text;html=1;align=left;verticalAlign=middle;whiteSpace=wrap;rounded=0;fontFamily=Times New Roman;fontSize=13;" vertex="1" parent="1">
          <mxGeometry x="451" y="529" width="57" height="30" as="geometry" />
        </mxCell>
      </root>
    </mxGraphModel>
  </diagram>
</mxfile>
